<?xml version="1.0" encoding="UTF-8" standalone="no"?>
<svg
   xmlns:dc="http://purl.org/dc/elements/1.1/"
   xmlns:cc="http://creativecommons.org/ns#"
   xmlns:rdf="http://www.w3.org/1999/02/22-rdf-syntax-ns#"
   xmlns:svg="http://www.w3.org/2000/svg"
   xmlns="http://www.w3.org/2000/svg"
   xmlns:sodipodi="http://sodipodi.sourceforge.net/DTD/sodipodi-0.dtd"
   xmlns:inkscape="http://www.inkscape.org/namespaces/inkscape"
   inkscape:version="1.0 (4035a4fb49, 2020-05-01)"
   sodipodi:docname="Beko_logo.svg"
   xml:space="preserve"
   enable-background="new 0 0 150 51"
   viewBox="0 0 119.98 21.198"
   height="21.198"
   width="119.98"
   y="0px"
   x="0px"
   id="katman_1"
   version="1.1"><metadata
   id="metadata9"><rdf:RDF><cc:Work
       rdf:about=""><dc:format>image/svg+xml</dc:format><dc:type
         rdf:resource="http://purl.org/dc/dcmitype/StillImage" /><dc:title></dc:title></cc:Work></rdf:RDF></metadata><defs
   id="defs7" /><sodipodi:namedview
   inkscape:current-layer="katman_1"
   inkscape:window-maximized="1"
   inkscape:window-y="-9"
   inkscape:window-x="-9"
   inkscape:cy="10.598"
   inkscape:cx="60"
   inkscape:zoom="8.0333333"
   fit-margin-bottom="0"
   fit-margin-right="0"
   fit-margin-left="0"
   fit-margin-top="0"
   showgrid="false"
   id="namedview5"
   inkscape:window-height="1001"
   inkscape:window-width="1920"
   inkscape:pageshadow="2"
   inkscape:pageopacity="0"
   guidetolerance="10"
   gridtolerance="10"
   objecttolerance="10"
   borderopacity="1"
   bordercolor="#666666"
   pagecolor="#ffffff" />
<path
   id="path2"
   d="m 27.479,10.628 c 0,0 3.172,-1.517 3.172,-4.5 0,-3.414 -2.18,-6.127 -7.403,-6.127 H 0 v 21.197 h 23.248 c 5.223,0 7.403,-2.713 7.403,-6.127 0,-2.987 -3.172,-4.443 -3.172,-4.443 z m -3.511,5.105 H 6.156 v -2.434 h 17.812 z m 0,-7.817 H 6.156 V 5.484 H 23.968 Z M 32.624,6.2 c 0,-3.176 3.058,-6.083 5.895,-6.083 H 60.056 V 5.603 H 39.24 v 2.313 h 20.815 l 0.002,5.482 H 39.24 v 2.312 h 20.815 v 5.486 H 38.519 c -2.837,0 -5.895,-2.904 -5.895,-6.082 z m 37.29,1.7 12.1,-7.9 h 9.982 L 76.078,10.62 91.933,21.196 h -9.984 l -12.035,-7.9 -0.002,7.9 H 63.035 V 0 h 6.877 z M 112.945,0 H 97.216 c -4.221,0 -7.032,2.759 -7.032,5.968 v 9.246 c 0,3.211 2.812,5.967 7.032,5.967 h 15.729 c 4.222,0 7.035,-2.756 7.035,-5.967 V 5.968 C 119.98,2.759 117.167,0 112.945,0 Z m 0.539,15.668 H 96.68 V 5.515 h 16.805 v 10.153 z"
   fill="#055b96" />
</svg>
