<?xml version="1.0" encoding="UTF-8"?>
<svg width="500" height="192.31" version="1.1" viewBox="0 0 500 192.31" xmlns="http://www.w3.org/2000/svg">
 <path d="m13.356 164.57c0-9.1891 7.4744-16.641 16.692-16.641h53.304l6.6763-11.093h-62.205a27.837 27.837 0 0 0-22.256 11.096 27.554 27.554 0 0 0-5.5673 16.635 27.548 27.548 0 0 0 5.5673 16.641 27.821 27.821 0 0 0 22.253 11.103h55.532l6.6763-11.093h-59.981a16.692 16.692 0 0 1-15.737-11.093 16.58 16.58 0 0 1-0.95513-5.5449v-6e-3zm383.99-11.093c0-9.1923-7.4744-16.641-16.692-16.641h-73.336l6.6763 11.096h66.66c3.0738 0 5.5641 2.4808 5.5641 5.5449s-2.4903 5.5449-5.5641 5.5449h-73.336v33.288h13.353v-22.192h49.359l12.853 22.192h14.465l-13.077-22.587a16.654 16.654 0 0 0 13.077-16.247m83.766-16.641-31.705 24.321-31.705-24.321h-19.583l43.385 33.282v22.192h15.112v-22.189l43.388-33.285zm-262.86 16.503a5.5545 5.5545 0 0 1 5.5545-5.4103h64.446l6.6795-11.093h-73.34c-9.218 0-16.696 7.4519-16.696 16.641v38.83h83.356l6.6795-11.093h-76.68v-11.093h56.644l6.6795-11.096h-63.324zm141.11-87.048c-7.0321 3.1795-15.25 2.2821-21.503-2.234l-8.2532-5.9615-55.564-40.109-0.1859-0.13141-0.1667-0.1218-0.391-0.27243c-2.2821-1.5865-9.3333-6.3558-14.548-8.4391-0.022 0.01-0.042 0.0256-0.064 0.0385a16.006 16.006 0 0 0-1.25-0.51923c-0.035-0.0128-0.064-0.0288-0.099-0.0353a21.026 21.026 0 0 0-4.0865-1.0641c2.1218 0.0128 4.2211 0.0417 6.3141 0.0897l1.3878 0.0289c34.76 0.84615 65.641 5.6955 87.263 12.971h0.01c19.92 6.6987 31.984 15.465 31.984 25.045 0 7.6378-7.6603 14.75-20.853 20.715zm-56.795 14.186c-16.077 2.0833-33.862 3.2404-52.561 3.2404-18.702 0-36.484-1.1538-52.561-3.2372-14.686-2.6442-7.6122-12.571-3.766-16.833a0.70192 0.70192 0 0 1 0.1218-0.125c0.9295-1.0288 1.6506-1.7051 1.7788-1.8205 0.016-0.01 0.019-0.0192 0.019-0.0192a424.23 424.23 0 0 1 7.6475-7.5385 438.01 438.01 0 0 1 25.93-23.096c2.6698-2.1955 5.3397-4.3365 8-6.4103l0.019-0.0128a16.064 16.064 0 0 1 0.875-0.67628c2.0448-1.516 7.2371-4.9808 11.936-4.968 4.6955-0.0128 9.8878 3.4519 11.929 4.968 0.1058 0.0705 0.1956 0.14103 0.2821 0.21154l0.234 0.17628c0.1057 0.0769 0.1923 0.14744 0.2468 0.19551l0.093 0.0737 0.042 0.032a419.07 419.07 0 0 1 8.0064 6.4103 439.73 439.73 0 0 1 25.92 23.096 415.03 415.03 0 0 1 7.6699 7.5577l0.067 0.0705c0.2372 0.21154 0.8782 0.83334 1.6827 1.7115l0.01 0.01c3.8141 4.1731 11.234 14.308-3.6218 16.987zm-140.42-16.42c-6.25 4.516-14.468 5.4135-21.497 2.234-13.192-5.9615-20.856-13.077-20.856-20.715 0-9.5801 12.067-18.346 31.987-25.045 21.615-7.2724 52.51-12.125 87.269-12.971l1.391-0.0289c2.0994-0.0481 4.1987-0.0769 6.3205-0.0897-1.4231 0.21795-2.7852 0.57692-4.0929 1.0641-0.013 6e-3 -0.039 6e-3 -0.048 0.0128a20.138 20.138 0 0 0-1.3013 0.54487 0.76923 0.76923 0 0 0-0.064-0.0417c-5.2148 2.0833-12.269 6.8526-14.551 8.4391l-0.3846 0.27243-0.359 0.25641-55.561 40.106-8.2564 5.9615zm188.17-51.292c-21.391-6.3782-48.327-10.756-78.112-12.218a449.42 449.42 0 0 0-21.333-0.54487h-1.7468c-7.2436 0.0128-14.359 0.19551-21.327 0.54487-29.795 1.4615-56.731 5.8333-78.125 12.218-30.641 9.141-49.91 22.404-49.91 37.163 0 12.5 13.83 23.936 36.67 32.692 9.2724 3.5513 20.032 6.6731 31.965 9.234 9.6987 2.093 20.179 3.8269 31.26 5.1282 15.737 1.859 32.686 2.8782 50.343 2.8782 17.654 0 34.599-1.016 50.336-2.8782a333.59 333.59 0 0 0 31.263-5.1282c11.93-2.5641 22.692-5.6827 31.965-9.234 22.843-8.7564 36.667-20.192 36.667-32.692 0-14.756-19.272-28.022-49.91-37.163zm-171.23 124.07v22.189h-63.321v-22.189h-13.356v55.474h13.356v-22.192h63.321v22.192h13.356v-55.474z" fill="#313131" stroke-width=".1878"/>
</svg>