<?xml version="1.0" standalone="no"?>
<!DOCTYPE svg PUBLIC "-//W3C//DTD SVG 20010904//EN"
 "http://www.w3.org/TR/2001/REC-SVG-20010904/DTD/svg10.dtd">
<svg version="1.0" xmlns="http://www.w3.org/2000/svg"
 width="1272.000000pt" height="197.000000pt" viewBox="0 0 1272.000000 197.000000"
 preserveAspectRatio="xMidYMid meet">

<g transform="translate(0.000000,197.000000) scale(0.100000,-0.100000)"
fill="#000000" stroke="none">
<path d="M1430 985 l0 -705 163 0 164 0 116 119 117 119 0 586 0 586 -280 0
-280 0 0 -705z"/>
<path d="M2545 1678 c-3 -7 -66 -317 -140 -688 -75 -371 -138 -683 -141 -692
-5 -17 8 -18 185 -18 105 0 191 2 191 4 0 5 195 970 211 1044 l11 52 244 0
c134 0 244 4 244 9 0 8 -45 235 -55 279 l-5 22 -371 0 c-286 0 -371 -3 -374
-12z"/>
<path d="M3370 1681 c0 -5 63 -321 140 -702 77 -381 140 -694 140 -696 0 -2
85 -3 189 -3 l188 0 -142 702 -141 703 -187 3 c-114 1 -187 -1 -187 -7z"/>
<path d="M4370 985 l0 -705 180 0 180 0 -2 702 -3 703 -177 3 -178 2 0 -705z"/>
<path d="M4800 1535 l0 -155 655 0 655 0 0 155 0 155 -655 0 -655 0 0 -155z"/>
<path d="M6667 1643 c-24 -27 -76 -84 -115 -128 l-72 -80 0 -454 0 -454 122
-124 122 -123 58 0 58 0 0 705 0 705 -64 0 c-64 0 -65 0 -109 -47z"/>
<path d="M6914 1677 c-2 -7 -3 -76 -2 -152 l3 -140 655 0 655 0 0 150 0 150
-653 3 c-529 2 -654 0 -658 -11z"/>
<path d="M8767 1643 c-24 -27 -76 -84 -115 -128 l-72 -80 0 -454 0 -454 122
-124 122 -123 303 0 303 0 0 150 0 150 -183 0 -183 0 -62 69 -62 70 0 266 0
267 56 64 56 64 189 0 189 0 0 155 0 155 -309 0 -310 0 -44 -47z"/>
<path d="M9504 1677 c-2 -7 -3 -76 -2 -152 l3 -140 187 -3 187 -2 55 -62 56
-61 0 -275 0 -274 -62 -64 -61 -64 -184 0 -183 0 0 -150 0 -150 308 0 307 0
118 124 117 124 0 456 0 455 -112 126 -112 125 -308 0 c-244 0 -310 -3 -314
-13z"/>
<path d="M10851 1566 l-111 -124 0 -459 1 -458 115 -122 116 -123 309 0 309 0
0 150 0 150 -183 0 -183 0 -62 63 -62 63 0 278 0 278 52 57 51 56 191 5 191 5
0 150 0 150 -312 3 -311 2 -111 -124z"/>
<path d="M11654 1677 c-2 -7 -3 -76 -2 -152 l3 -140 191 -5 191 -5 51 -56 52
-57 0 -279 0 -279 -63 -62 -63 -62 -182 0 -182 0 0 -150 0 -150 309 0 309 0
116 122 116 123 0 460 -1 460 -110 123 -111 122 -309 0 c-245 0 -311 -3 -315
-13z"/>
<path d="M4800 980 l0 -150 610 0 610 0 0 150 0 150 -610 0 -610 0 0 -150z"/>
<path d="M220 575 c0 -4 55 -71 123 -150 l122 -145 448 0 447 0 0 150 0 150
-570 0 c-314 0 -570 -2 -570 -5z"/>
<path d="M4800 430 l0 -150 655 0 655 0 0 150 0 150 -655 0 -655 0 0 -150z"/>
<path d="M6910 430 l0 -150 660 0 660 0 0 150 0 150 -660 0 -660 0 0 -150z"/>
</g>
</svg>
