<?xml version="1.0" encoding="utf-8"?>
<!-- Generator: Adobe Illustrator 16.0.0, SVG Export Plug-In . SVG Version: 6.00 Build 0)  -->
<!DOCTYPE svg PUBLIC "-//W3C//DTD SVG 1.1//EN" "http://www.w3.org/Graphics/SVG/1.1/DTD/svg11.dtd">
<svg version="1.1" id="Livello_1" xmlns="http://www.w3.org/2000/svg" xmlns:xlink="http://www.w3.org/1999/xlink" x="0px" y="0px"
	 width="135px" height="40px" viewBox="0 0 135 40" enable-background="new 0 0 135 40" xml:space="preserve">
<g>
	<defs>
		<rect id="SVGID_1_" width="135" height="40"/>
	</defs>
	<clipPath id="SVGID_2_">
		<use xlink:href="#SVGID_1_"  overflow="visible"/>
	</clipPath>
	<g clip-path="url(#SVGID_2_)">
		<path fill="#F9423A" d="M75.137,12.488C70.982,0.671,59.189,0.037,57.991,0c-5.279-0.112-11.119,1.715-15.574,6.039
			c-1.797,1.603-3.07,3.467-4.418,5.443c-1.348-2.013-2.621-3.84-4.417-5.443C29.164,1.715,23.324-0.112,18.045,0
			C16.81,0.037,5.017,0.671,0.898,12.488c-1.46,4.212-1.123,9.692,1.048,13.719c2.171,4.623,7.375,8.425,12.878,8.053
			c3.968-0.112,8.311-2.61,9.921-6.674c1.348-3.615,0.936-7.53-2.171-10.624c0.075,0.783,0.112,1.901-0.674,2.908
			c-1.235,1.714-3.22,2.162-5.279,1.417c-1.797-0.82-2.471-2.125-2.284-3.84c0.112-1.454,1.311-2.572,2.546-3.131
			c2.396-1.044,4.605-0.522,6.776,1.528c3.557,3.952,3.968,9.917,5.653,14.464c1.198,3.728,3.07,6.972,7.226,7.903
			c0.487,0.111,1.011,0.186,1.535,0.148c0.524,0,1.048-0.037,1.535-0.148c4.156-0.932,6.027-4.176,7.226-7.903
			c1.685-4.548,2.097-10.513,5.616-14.464c2.171-2.05,4.38-2.572,6.776-1.528c1.236,0.559,2.396,1.678,2.546,3.131
			c0.187,1.715-0.487,3.02-2.284,3.84c-2.059,0.745-4.006,0.298-5.279-1.417c-0.786-1.007-0.749-2.125-0.674-2.908
			c-3.107,3.094-3.519,7.009-2.171,10.624c1.61,4.063,5.953,6.562,9.921,6.674c5.466,0.372,10.67-3.393,12.842-8.053
			C76.26,22.181,76.598,16.701,75.137,12.488z M66.789,26.58c-2.508,2.199-5.84,2.833-8.536,1.603
			c-1.61-0.782-2.808-2.162-3.182-3.653c2.284,2.273,6.402,3.393,10.146-0.559c0,0,3.519-3.244,1.535-9.395
			c-1.011-3.057-4.717-5.555-7.824-5.89c-4.642-0.746-8.985,0.82-12.018,5.033c-3.557,5.479-4.006,11.594-6.626,17.707
			c-0.449,1.007-1.348,1.454-2.284,1.416c-0.936,0.038-1.834-0.409-2.284-1.416c-2.583-6.076-2.995-12.153-6.589-17.67
			c-3.032-4.212-7.413-5.778-12.018-5.033c-3.107,0.298-6.851,2.833-7.824,5.89c-1.984,6.15,1.535,9.395,1.535,9.395
			c3.781,3.951,7.862,2.795,10.146,0.559c-0.374,1.491-1.535,2.871-3.182,3.653c-2.695,1.23-6.065,0.56-8.573-1.603
			c-3.706-3.653-4.268-8.351-2.808-12.675c1.759-5.256,7.113-7.866,11.344-8.202c5.017-0.447,11.942,2.61,14.713,7.866
			c0.636,1.193,1.984,4.325,1.984,4.325h3.52h3.519c0,0,1.348-3.131,1.984-4.325c2.771-5.219,9.697-8.275,14.713-7.866
			c4.23,0.335,9.584,2.982,11.343,8.202C71.057,18.229,70.495,22.926,66.789,26.58z"/>
		<path d="M110.402,15.471c0-0.932-0.336-1.79-1.346-1.79c-1.012,0-1.349,0.857-1.349,1.79v12.228c0,0.932,0.337,1.752,1.349,1.752
			c1.01,0,1.346-0.857,1.346-1.752V15.471z M116.843,27.362c0,4.697-3.669,6.747-7.786,6.747c-4.119,0-7.789-2.05-7.789-6.747
			V15.843c0-4.697,3.67-6.747,7.789-6.747c4.117,0,7.786,2.05,7.786,6.747V27.362z M94.006,14.762l7.038,18.304h-7.075
			l-4.044-11.072l-1.011,1.752v9.32h-7.076V1.454h7.076v9.841l4.567-9.841h7.001L94.006,14.762z M128.748,15.172
			c0-0.932-0.337-1.79-1.46-1.79c-1.086,0-1.423,0.82-1.423,1.79v12.787c0,0.932,0.337,1.789,1.423,1.789
			c1.085,0,1.46-0.82,1.46-1.789v-4.213H135v3.729c0,4.809-3.332,6.598-7.975,6.598c-4.904,0-7.899-2.162-7.899-7.045V16.142
			c0-4.175,2.92-7.083,7.899-7.083c4.23,0,7.975,1.678,7.975,7.158v1.901h-6.252V15.172z M121.223,35.452h11.719V40h-11.719V35.452z
			"/>
	</g>
</g>
</svg>
