<svg xmlns="http://www.w3.org/2000/svg" viewBox="0 0 792.23 246.96"><defs><style>.cls-1{fill:#2581c4;}</style></defs><g id="Layer_2" data-name="Layer 2"><g id="Layer_1-2" data-name="Layer 1"><path class="cls-1" d="M616.72,132.85c35.46-18,39-49.2,39.48-60.07,1.15-25.31-23-56-81.84-46.76-50,7.86-87.34,46.76-95,98-3.48,23.25-8.73,73.56,48.9,86.59,41.55,9.39,88.65-7.51,88.65-7.51l10.33-38.58c-45,10.69-63,10.93-79.61,6C528.85,165,529.75,146,529.75,146,553.58,145.77,592.46,145.15,616.72,132.85ZM574.22,66c14-4.55,31.26-3.48,35.78,5.22,5,9.53-4.25,26.85-24,32.78-27.16,8.14-53.74,5-53.79,5.14a62.89,62.89,0,0,1,5-13C544.87,80.41,563.29,69.59,574.22,66Z"/><path class="cls-1" d="M221.56,27.47l-149,0-11,41.12,69.05,0C120.83,77.46,112,98.22,112,98.22L11.23,98.15,0,139.32l100.4.07a147.49,147.49,0,0,0,3.06,29.72H34.65L23.58,210.42l154,0c23.37-.31,86.41-12.87,106.66-95.79C299.8,51.09,257,27,221.56,27.47Zm7.71,96.32C214.86,167.13,189.06,169,180.19,169s-36.31-2.07-23.14-50c13.9-50.6,43.68-50.57,52.55-50.43C221.29,68.73,245.08,76.22,229.27,123.79Z"/><path class="cls-1" d="M413.82,24.84C322.53,18.05,302,91.77,300.72,96.63L259.86,247H311.5l12.71-47.08c62.6,38.78,130.13-11.81,144.75-78.44C486,43.62,432.78,26.24,413.82,24.84ZM417.58,124c-14.41,43.34-40.21,45.17-49.08,45.17s-36.31-2.06-23.14-50C359.26,68.59,389,68.62,397.9,68.75,409.6,68.93,433.39,76.42,417.58,124Z"/><path class="cls-1" d="M779.62,164.52l-10.51,38.55s-24.06,9.56-49.84,10.13c-22.95.5-41.53-10.19-48.27-16.56-12.93-12.2-17.12-25.87-18.09-38.59a97.62,97.62,0,0,1,1-24C655.6,123.25,689.6,0,689.6,0h49.79l-7.34,27.45h60.18l-11.14,41.2-60.17,0s-4.36,15.52-9.21,33.86C706.39,122.7,704.15,135,704.3,145c.05,2.85.09,13.5,9.54,21.35,4.71,3.91,17.43,12.12,51.16,2.41Z"/></g></g></svg>