<?xml version="1.0" encoding="UTF-8" standalone="no"?>
<!-- Created with Inkscape (http://www.inkscape.org/) -->

<svg
   xmlns="http://www.w3.org/2000/svg"
   width="123.44793"
   height="48.098961"
   viewBox="0 0 32.662264 12.726184">
  <g
     transform="translate(-109.53565,-106.4282)">
    <g
       transform="translate(86.025336,-120.45741)">
      <path
         id="path153"
         d="m 23.64261,228.39457 h 1.564073 v 8.17727 h 1.43316 v -8.17727 h 1.562695 V 227.1502 H 23.64261 Z m 0,0"
         style="fill:#731e30" />
      <path
         id="path155"
         d="m 36.699522,228.45244 c -0.434082,-0.44372 -0.945334,-0.79099 -1.533757,-1.0418 -0.588422,-0.26044 -1.215429,-0.39274 -1.881022,-0.39274 -0.665592,0 -1.293978,0.1323 -1.881022,0.39274 -0.5898,0.25081 -1.101052,0.59808 -1.535135,1.0418 -0.434082,0.43409 -0.782725,0.94534 -1.041797,1.53376 -0.252181,0.58842 -0.377582,1.21543 -0.377582,1.88102 0,0.66697 0.125401,1.2926 0.377582,1.88103 0.259072,0.58979 0.607715,1.10518 1.041797,1.55029 0.434083,0.43408 0.945335,0.77583 1.535135,1.02664 0.587044,0.2508 1.21543,0.3762 1.881022,0.3762 0.665593,0 1.2926,-0.1254 1.881022,-0.3762 0.588423,-0.25081 1.099675,-0.59256 1.533757,-1.02664 0.443728,-0.44511 0.792372,-0.9605 1.041797,-1.55029 0.252181,-0.58843 0.377582,-1.21406 0.377582,-1.88103 0,-0.66559 -0.125401,-1.2926 -0.377582,-1.88102 -0.249425,-0.58842 -0.598069,-1.09967 -1.041797,-1.53376 m -0.389985,4.86172 c -0.183279,0.43409 -0.424435,0.80753 -0.724848,1.11621 -0.297656,0.30731 -0.6463,0.54846 -1.041797,0.72347 -0.385851,0.16399 -0.781348,0.2453 -1.186491,0.2453 -0.414789,0 -0.825445,-0.0813 -1.230588,-0.2453 -0.403765,-0.17501 -0.767567,-0.41616 -1.084516,-0.72347 -0.318327,-0.30868 -0.578776,-0.68212 -0.782726,-1.11621 -0.191547,-0.43408 -0.28801,-0.92053 -0.28801,-1.46072 0,-0.52227 0.08544,-0.99494 0.26045,-1.418 0.173632,-0.43546 0.409277,-0.80615 0.708311,-1.11483 0.299035,-0.31971 0.6463,-0.565 1.041797,-0.73725 0.406521,-0.17501 0.835091,-0.26183 1.288466,-0.26183 0.453374,0 0.883322,0.0868 1.288466,0.26183 0.405143,0.17225 0.75792,0.41754 1.056955,0.73725 0.299034,0.30868 0.534679,0.67937 0.708311,1.11483 0.173633,0.42306 0.261828,0.89573 0.261828,1.418 0,0.54019 -0.09233,1.02664 -0.275608,1.46072"
         style="fill:#731e30" />
      <path
         id="path157"
         d="m 40.666894,228.40835 h 2.634809 v -1.24437 h -4.096907 v 9.43681 h 1.477257 v -3.08406 h 3.024793 v -1.2733 h -3.039952 z m 0,0"
         style="fill:#731e30" />
      <path
         id="path159"
         d="m 46.544227,227.16398 -2.372981,9.40786 h 1.577855 l 0.332105,-1.53513 h 2.287545 l 0.347264,1.53513 h 1.577855 l -2.37436,-9.40786 z m -0.260449,6.64352 0.927421,-4.42901 0.926042,4.42901 z m 0,0"
         style="fill:#731e30" />
      <path
         id="path161"
         d="m 55.866655,232.60585 c -0.106109,-0.31833 -0.254935,-0.59807 -0.449241,-0.83922 -0.191545,-0.25081 -0.428569,-0.46441 -0.708311,-0.63666 -0.279742,-0.18328 -0.584288,-0.34313 -0.912262,-0.47818 -0.144692,-0.0482 -0.293522,-0.11162 -0.447862,-0.18741 -0.155716,-0.0786 -0.294898,-0.16812 -0.4203,-0.27561 -0.115757,-0.11575 -0.216351,-0.24116 -0.304546,-0.3762 -0.07717,-0.1447 -0.114377,-0.30455 -0.114377,-0.47818 0,-0.10611 0.01792,-0.21635 0.0565,-0.33211 0.03859,-0.1254 0.101977,-0.23702 0.188792,-0.33348 0.08682,-0.10611 0.198438,-0.19155 0.333485,-0.26045 0.13505,-0.0675 0.299035,-0.10198 0.491959,-0.10198 0.414789,0 0.742763,0.0827 0.983922,0.24667 0.241155,0.15434 0.418924,0.30455 0.534677,0.44924 v -1.73771 l -0.505739,-0.12953 c -0.15434,-0.04 -0.332108,-0.0634 -0.536056,-0.073 -0.192927,-0.0193 -0.399634,-0.0331 -0.622875,-0.0427 -0.249425,0 -0.515387,0.0482 -0.795126,0.1447 -0.270097,0.0868 -0.525036,0.23151 -0.76757,0.43408 -0.230131,0.19293 -0.424434,0.43959 -0.578775,0.73863 -0.15434,0.28939 -0.23151,0.63665 -0.23151,1.0418 0,0.45337 0.08268,0.83509 0.246669,1.14239 0.173634,0.30041 0.391361,0.55535 0.650434,0.76757 0.261828,0.21359 0.536057,0.39963 0.825444,0.56499 0.299035,0.15434 0.578778,0.31282 0.840602,0.4768 0.259073,0.16399 0.47129,0.34727 0.636655,0.54984 0.172254,0.20395 0.260449,0.45889 0.260449,0.76757 0,0.23151 -0.0441,0.45337 -0.130913,0.66559 -0.07717,0.20395 -0.187413,0.38172 -0.333484,0.53606 -0.144695,0.14469 -0.318329,0.26045 -0.520901,0.34726 -0.202569,0.0868 -0.424434,0.12954 -0.66559,0.12954 -0.202572,0 -0.409278,-0.0276 -0.622875,-0.0854 -0.210841,-0.0689 -0.413409,-0.1502 -0.606336,-0.24667 -0.184658,-0.10611 -0.348644,-0.21222 -0.493339,-0.31833 -0.144692,-0.11713 -0.2508,-0.22737 -0.318325,-0.33348 v 1.79558 c 0.08682,0.0579 0.206706,0.11989 0.362422,0.18742 0.163989,0.0675 0.341754,0.13091 0.534681,0.18879 0.192923,0.0579 0.401009,0.10059 0.622871,0.12953 0.221866,0.0386 0.443731,0.0579 0.665593,0.0579 0.405144,0 0.790995,-0.0813 1.157552,-0.24529 0.366558,-0.16399 0.686263,-0.38172 0.95636,-0.65181 0.279742,-0.27975 0.501604,-0.60358 0.665593,-0.96876 0.163985,-0.36794 0.24529,-0.74828 0.24529,-1.14378 0,-0.41616 -0.05788,-0.77721 -0.173634,-1.08589"
         style="fill:#731e30" />
      <path
         id="path163"
         d="m 51.166166,239.4795 h 1.462102 l 1.707388,-2.37298 h -1.838304 z m 0,0"
         style="fill:#731e30" />
    </g>
  </g>
</svg>
